<svg xmlns="http://www.w3.org/2000/svg" width="128" height="128" viewBox="0 0 24 24" fill="none" class="injected-svg" data-src="https://cdn.hugeicons.com/icons/call-duotone-standard.svg?v=1.0.1" xmlns:xlink="http://www.w3.org/1999/xlink" role="img" color="#ffffff">
    <g opacity="0.4">
        <path d="M21 17.5209V20.0245C21 20.5775 20.5509 21.0288 19.9986 20.9986C17.5886 20.8666 15.3047 20.2613 13.2383 19.2739L16.4839 16.0284C16.7887 15.7236 17.2544 15.647 17.6556 15.8046C18.2138 16.0238 19.0694 16.3105 20.002 16.4444C20.5495 16.523 21 16.9678 21 17.5209Z" fill="#ffffff"></path>
        <path d="M6.47913 3H3.97553C3.42245 3 2.9712 3.44914 3.00144 4.00139C3.13339 6.41136 3.73874 8.69526 4.72607 10.7617L7.97162 7.51614C8.27642 7.21135 8.35302 6.74557 8.19544 6.34436C7.97621 5.78617 7.6895 4.93061 7.55558 3.99797C7.47697 3.45051 7.03221 3 6.47913 3Z" fill="#ffffff"></path>
    </g>
    <path d="M13.4892 19.023L16.4839 16.0284C16.7887 15.7236 17.2544 15.647 17.6556 15.8046C18.2138 16.0238 19.0694 16.3105 20.002 16.4444C20.5495 16.523 21 16.9678 21 17.5209V20.0245C21 20.5775 20.5509 21.0288 19.9986 20.9986C10.8404 20.4971 3.50289 13.1596 3.00144 4.00139C2.9712 3.44914 3.42245 3 3.97553 3H6.47913C7.03221 3 7.47697 3.45051 7.55558 3.99797C7.6895 4.93061 7.97621 5.78617 8.19544 6.34436C8.35302 6.74557 8.27642 7.21135 7.97162 7.51614L4.97697 10.5108" stroke="#ffffff" stroke-width="1.5" stroke-linecap="round" stroke-linejoin="round"></path>
</svg>